<svg width="24" height="24" viewBox="0 0 24 24" xmlns="http://www.w3.org/2000/svg" xmlns:xlink="http://www.w3.org/1999/xlink" focusable="false" role="presentation"><defs><path d="M5.625 19.25c.77 0 1.375.605 1.375 1.375S6.395 22 5.625 22s-1.375-.605-1.375-1.375.605-1.375 1.375-1.375zm13 0c.77 0 1.375.605 1.375 1.375S19.395 22 18.625 22s-1.375-.605-1.375-1.375.604-1.375 1.375-1.375zM1.135 2.212l2.962.543 18.762 2.622-2.29 7.853-13.855.492.368 2.167c.094.558.55.977 1.103 1.034l.13.007H20.25v1.5H8.314a2.75 2.75 0 01-2.677-2.12l-.034-.17-.427-2.514L3.36 4.144.865 3.688l.27-1.476zm3.798 2.175l1.503 7.844 12.996-.462 1.5-5.147-16-2.235z" id="nds-Icon1342a"></path></defs><g fill="none" fill-rule="evenodd"><mask id="nds-Icon1342b" fill="#fff"><use xlink:href="#nds-Icon1342a"></use></mask><use fill="#333" fill-rule="nonzero" xlink:href="#nds-Icon1342a"></use><g mask="url(#nds-Icon1342b)" fill="#333"><path d="M0 0h24v24H0z"></path></g></g></svg>