<svg xmlns="http://www.w3.org/2000/svg" xmlns:xlink="http://www.w3.org/1999/xlink" width="500" zoomAndPan="magnify" viewBox="0 0 375 374.999991" height="500" preserveAspectRatio="xMidYMid meet" version="1.0"><defs><clipPath id="7af03da478"><path d="M 117.8125 64.78125 L 257.3125 64.78125 L 257.3125 251.53125 L 117.8125 251.53125 Z M 117.8125 64.78125 " clip-rule="nonzero"/></clipPath><clipPath id="29354ff5e2"><path d="M 38.96875 232.816406 L 335.96875 232.816406 L 335.96875 310.066406 L 38.96875 310.066406 Z M 38.96875 232.816406 " clip-rule="nonzero"/></clipPath></defs><g clip-path="url(#7af03da478)"><path fill="#cc0000" d="M 120.394531 251.53125 L 240.992188 251.53125 C 241.714844 251.53125 242.4375 251.171875 242.800781 250.808594 C 242.800781 250.808594 242.800781 250.628906 242.980469 250.628906 L 257.265625 242.484375 L 236.472656 114.367188 C 236.292969 113.097656 235.207031 112.195312 233.941406 112.195312 L 208.808594 112.195312 L 208.808594 90.296875 C 208.808594 76.183594 196.152344 64.78125 180.785156 64.78125 C 165.234375 64.78125 152.757812 76.183594 152.757812 90.296875 L 152.757812 112.195312 L 127.445312 112.195312 C 126 112.195312 124.914062 113.28125 124.914062 114.546875 L 117.863281 248.820312 C 117.863281 249.542969 118.042969 250.265625 118.585938 250.808594 C 119.128906 251.351562 119.671875 251.53125 120.394531 251.53125 Z M 252.566406 240.132812 L 243.34375 245.378906 L 238.460938 154.175781 Z M 156.917969 90.296875 C 156.917969 78.535156 167.585938 69.125 180.601562 69.125 C 193.621094 69.125 204.289062 78.71875 204.289062 90.296875 L 204.289062 112.195312 L 156.917969 112.195312 Z M 129.253906 116.539062 L 152.757812 116.539062 L 152.757812 126.128906 C 150.589844 127.03125 148.960938 129.023438 148.960938 131.558594 C 148.960938 134.8125 151.671875 137.527344 154.929688 137.527344 C 158.183594 137.527344 160.894531 134.8125 160.894531 131.558594 C 160.894531 129.023438 159.265625 127.03125 157.097656 126.128906 L 157.097656 116.539062 L 204.648438 116.539062 L 204.648438 126.128906 C 202.480469 127.03125 200.851562 129.023438 200.851562 131.558594 C 200.851562 134.8125 203.566406 137.527344 206.820312 137.527344 C 210.074219 137.527344 212.785156 134.8125 212.785156 131.558594 C 212.785156 129.023438 211.160156 127.03125 208.988281 126.128906 L 208.988281 116.539062 L 232.496094 116.539062 L 239.367188 247.191406 L 122.203125 247.191406 Z M 129.253906 116.539062 " fill-opacity="1" fill-rule="nonzero"/></g><path fill="#cc0000" d="M 194.707031 175.890625 C 185.121094 186.929688 176.082031 186.929688 166.5 175.890625 C 165.777344 174.988281 164.328125 174.804688 163.425781 175.710938 C 162.523438 176.433594 162.339844 177.882812 163.246094 178.789062 C 168.851562 185.300781 174.636719 188.738281 180.601562 188.738281 C 186.386719 188.738281 192.355469 185.484375 197.960938 178.789062 C 198.683594 177.882812 198.683594 176.617188 197.78125 175.710938 C 196.875 174.988281 195.609375 174.988281 194.707031 175.890625 Z M 194.707031 175.890625 " fill-opacity="1" fill-rule="nonzero"/><g clip-path="url(#29354ff5e2)"><path fill="#cc0000" d="M 43.722656 257.050781 C 43.816406 256.613281 43.90625 256.191406 44.023438 255.765625 L 44.394531 254.527344 C 44.59375 253.710938 44.964844 252.941406 45.214844 252.179688 C 45.878906 250.6875 46.582031 249.292969 47.425781 248 C 48.304688 246.730469 49.214844 245.511719 50.289062 244.433594 C 52.421875 242.269531 54.921875 240.472656 57.890625 239.152344 L 58.449219 238.890625 L 59.023438 238.671875 C 59.414062 238.53125 59.804688 238.367188 60.203125 238.222656 C 61.011719 238.007812 61.84375 237.679688 62.710938 237.488281 C 63.582031 237.265625 64.480469 237.097656 65.421875 236.9375 C 65.433594 236.9375 65.441406 236.933594 65.453125 236.933594 C 66.566406 236.757812 66.859375 235.269531 65.871094 234.730469 C 64.9375 234.222656 63.933594 233.820312 62.894531 233.507812 C 61.863281 233.195312 60.796875 233.066406 59.707031 232.921875 C 59.160156 232.855469 58.617188 232.882812 58.0625 232.867188 L 57.230469 232.867188 C 56.953125 232.878906 56.679688 232.921875 56.402344 232.945312 C 51.957031 233.355469 47.628906 235.523438 44.460938 238.796875 C 42.855469 240.421875 41.597656 242.359375 40.632812 244.402344 C 39.695312 246.472656 39.164062 248.691406 38.976562 250.898438 C 38.953125 251.453125 38.96875 252.011719 38.96875 252.5625 C 38.976562 252.835938 38.96875 253.105469 38.988281 253.382812 C 39.015625 253.652344 39.058594 253.925781 39.09375 254.199219 C 39.175781 254.738281 39.226562 255.273438 39.339844 255.804688 C 39.464844 256.332031 39.597656 256.851562 39.765625 257.359375 C 40.039062 258.183594 40.375 258.984375 40.773438 259.742188 C 41.386719 260.90625 43.148438 260.617188 43.324219 259.3125 C 43.433594 258.53125 43.5625 257.785156 43.722656 257.050781 Z M 331.578125 259.3125 C 331.757812 260.617188 333.515625 260.90625 334.132812 259.742188 C 334.53125 258.984375 334.863281 258.183594 335.140625 257.359375 C 335.308594 256.851562 335.441406 256.332031 335.5625 255.804688 C 335.679688 255.273438 335.730469 254.738281 335.8125 254.199219 C 335.84375 253.925781 335.890625 253.652344 335.914062 253.382812 C 335.9375 253.105469 335.925781 252.835938 335.933594 252.5625 C 335.9375 252.011719 335.949219 251.453125 335.925781 250.898438 C 335.738281 248.691406 335.210938 246.472656 334.273438 244.402344 C 333.304688 242.359375 332.046875 240.421875 330.445312 238.796875 C 327.277344 235.523438 322.949219 233.355469 318.5 232.945312 C 318.226562 232.921875 317.953125 232.878906 317.675781 232.867188 L 316.839844 232.867188 C 316.289062 232.882812 315.742188 232.855469 315.199219 232.921875 C 314.105469 233.066406 313.039062 233.195312 312.007812 233.507812 C 310.96875 233.820312 309.96875 234.222656 309.03125 234.730469 C 308.042969 235.269531 308.339844 236.757812 309.453125 236.933594 C 309.460938 236.933594 309.472656 236.9375 309.480469 236.9375 C 310.425781 237.097656 311.324219 237.265625 312.191406 237.488281 C 313.058594 237.679688 313.894531 238.007812 314.699219 238.222656 C 315.101562 238.367188 315.492188 238.53125 315.878906 238.671875 L 316.457031 238.890625 L 317.011719 239.152344 C 319.980469 240.472656 322.484375 242.269531 324.613281 244.433594 C 325.691406 245.511719 326.597656 246.730469 327.480469 248 C 328.328125 249.292969 329.023438 250.6875 329.6875 252.179688 C 329.941406 252.941406 330.308594 253.710938 330.507812 254.527344 L 330.878906 255.765625 C 331 256.191406 331.085938 256.613281 331.183594 257.050781 C 331.339844 257.785156 331.46875 258.53125 331.578125 259.3125 Z M 186.359375 310.046875 C 162.808594 310.046875 139.414062 305.230469 116.824219 295.734375 C 94.964844 286.542969 73.808594 272.949219 53.941406 255.328125 C 52.4375 253.996094 52.300781 251.695312 53.636719 250.195312 C 54.972656 248.695312 57.277344 248.554688 58.78125 249.890625 C 97.789062 284.488281 141.90625 302.773438 186.359375 302.773438 C 231.195312 302.773438 275.644531 284.1875 314.90625 249.027344 C 316.40625 247.6875 318.707031 247.8125 320.050781 249.308594 C 321.394531 250.800781 321.269531 253.101562 319.769531 254.441406 C 299.785156 272.339844 278.484375 286.15625 256.457031 295.496094 C 233.691406 305.152344 210.109375 310.046875 186.359375 310.046875 " fill-opacity="1" fill-rule="nonzero"/></g></svg>